<svg width="24" height="24" viewBox="0 0 24 24" fill="none" xmlns="http://www.w3.org/2000/svg">
<path d="M14.659 20.01L13.139 21.53C12.519 22.15 11.499 22.15 10.879 21.53L9.35899 20.01C9.09899 19.75 8.58899 19.54 8.22899 19.54H6.07899C5.19899 19.54 4.47899 18.82 4.47899 17.94V15.79C4.47899 15.43 4.26899 14.92 4.00899 14.66L2.48899 13.14C1.86899 12.52 1.86899 11.5 2.48899 10.88L4.00899 9.36003C4.26899 9.10003 4.47899 8.59003 4.47899 8.23003V6.08003C4.47899 5.20003 5.19899 4.48003 6.07899 4.48003M9.33999 3.98903L10.86 2.46903C11.48 1.84903 12.5 1.84903 13.12 2.46903L14.64 3.98903C14.9 4.24903 15.41 4.45903 15.77 4.45903H17.92C18.8 4.45903 19.52 5.17903 19.52 6.05903V8.20903C19.52 8.56903 19.73 9.07903 19.99 9.33903L21.51 10.859C22.13 11.479 22.13 12.499 21.51 13.119L19.99 14.639C19.73 14.899 19.52 15.409 19.52 15.769V17.919C19.52 18.799 18.8 19.519 17.92 19.519M8.99999 15L15 9.00003" stroke="#5FB567" stroke-width="1.5" stroke-linecap="round" stroke-linejoin="round"/>
<path d="M14.495 14.5H14.504M9.495 9.5H9.503" stroke="#5FB567" stroke-width="2" stroke-linecap="round" stroke-linejoin="round"/>
</svg>
