<svg width="16" height="16" viewBox="0 0 16 16" fill="none" xmlns="http://www.w3.org/2000/svg">
<path d="M12.3999 1.40137C13.1333 1.40137 13.7333 2.00137 13.7333 2.7347V4.20137C13.7333 4.7347 13.3999 5.40137 13.0666 5.7347L10.1999 8.26803C9.79993 8.60137 9.53327 9.26803 9.53327 9.80137V12.668C9.53327 13.068 9.2666 13.6014 8.93327 13.8014L7.99994 14.4014C7.13327 14.9347 5.93327 14.3347 5.93327 13.268V9.7347C5.93327 9.26803 5.6666 8.66803 5.39994 8.3347L2.8666 5.66803C2.53327 5.3347 2.2666 4.7347 2.2666 4.3347V2.80137C2.2666 2.00137 2.8666 1.40137 3.59993 1.40137H9.59994M7.2866 1.40137L3.99993 6.66803" stroke="white" stroke-width="1.5" stroke-miterlimit="10" stroke-linecap="round" stroke-linejoin="round"/>
</svg>
