<svg width="72" height="40" viewBox="0 0 72 40" fill="none" xmlns="http://www.w3.org/2000/svg">
<rect width="72" height="40" rx="20" fill="#F4F4F4"/>
<path d="M14.252 24L15.692 15.828H17.264L19.22 21.42H19.136L21.092 15.828H22.664L24.116 24H22.352L21.788 20.352C21.716 19.864 21.648 19.38 21.584 18.9C21.528 18.412 21.48 17.924 21.44 17.436H21.932C21.804 17.964 21.676 18.46 21.548 18.924C21.428 19.388 21.284 19.856 21.116 20.328L19.868 23.904H18.488L17.24 20.328C17.072 19.848 16.924 19.38 16.796 18.924C16.676 18.46 16.552 17.964 16.424 17.436H16.916C16.876 17.924 16.828 18.412 16.772 18.9C16.716 19.38 16.648 19.864 16.568 20.352L16.004 24H14.252ZM27.5754 24.108C26.9914 24.108 26.4754 23.984 26.0274 23.736C25.5874 23.488 25.2434 23.136 24.9954 22.68C24.7554 22.224 24.6354 21.688 24.6354 21.072C24.6354 20.464 24.7554 19.928 24.9954 19.464C25.2434 19 25.5874 18.64 26.0274 18.384C26.4754 18.12 26.9914 17.988 27.5754 17.988C28.1754 17.988 28.6954 18.124 29.1354 18.396C29.5754 18.668 29.9154 19.036 30.1554 19.5C30.3954 19.956 30.5154 20.472 30.5154 21.048C30.5154 21.152 30.5114 21.252 30.5034 21.348C30.4954 21.444 30.4874 21.52 30.4794 21.576H26.0034V20.328H29.1354L28.9314 20.844C28.9314 20.404 28.8194 20.044 28.5954 19.764C28.3794 19.484 28.0434 19.344 27.5874 19.344C27.1794 19.344 26.8514 19.468 26.6034 19.716C26.3634 19.964 26.2434 20.292 26.2434 20.7V21.36C26.2434 21.8 26.3674 22.144 26.6154 22.392C26.8714 22.632 27.2234 22.752 27.6714 22.752C28.0474 22.752 28.3434 22.676 28.5594 22.524C28.7834 22.372 28.9714 22.184 29.1234 21.96L30.3114 22.62C30.0554 23.092 29.6954 23.46 29.2314 23.724C28.7674 23.98 28.2154 24.108 27.5754 24.108ZM35.0055 17.988C35.3975 17.988 35.7175 18.056 35.9655 18.192C36.2135 18.32 36.4015 18.5 36.5295 18.732C36.6655 18.964 36.7535 19.228 36.7935 19.524C36.8415 19.812 36.8655 20.112 36.8655 20.424V24H35.1135V20.52C35.1135 20.184 35.0535 19.964 34.9335 19.86C34.8135 19.748 34.6535 19.692 34.4535 19.692C34.2855 19.692 34.1095 19.728 33.9255 19.8C33.7495 19.864 33.5775 19.956 33.4095 20.076C33.2415 20.196 33.0935 20.332 32.9655 20.484L32.6535 19.596H33.1455V24H31.3935V18.132H32.6895L33.0495 19.296L32.4495 19.248C32.6575 19.016 32.8935 18.804 33.1575 18.612C33.4215 18.42 33.7095 18.268 34.0215 18.156C34.3335 18.044 34.6615 17.988 35.0055 17.988Z" fill="#272727"/>
<path d="M52.6733 20.5667L50.9266 22.3133C50.4133 22.8267 49.5733 22.8267 49.06 22.3133L44.72 17.9667M55.28 17.9667L54.5866 18.66" stroke="#272727" stroke-width="1.5" stroke-miterlimit="10" stroke-linecap="round" stroke-linejoin="round"/>
</svg>
